<?xml version="1.0" encoding="UTF-8" standalone="no"?>
<!-- Created with Inkscape (http://www.inkscape.org/) -->

<svg
   width="145.85059mm"
   height="55.390816mm"
   viewBox="0 0 145.85059 55.390816"
   version="1.1"
   id="svg1"
   xml:space="preserve"
   inkscape:version="1.3.2 (091e20e, 2023-11-25)"
   sodipodi:docname="drawing.svg"
   inkscape:export-filename="drawing.svg"
   inkscape:export-xdpi="96"
   inkscape:export-ydpi="96"
   xmlns:inkscape="http://www.inkscape.org/namespaces/inkscape"
   xmlns:sodipodi="http://sodipodi.sourceforge.net/DTD/sodipodi-0.dtd"
   xmlns="http://www.w3.org/2000/svg"
   xmlns:svg="http://www.w3.org/2000/svg"><sodipodi:namedview
     id="namedview1"
     pagecolor="#ffffff"
     bordercolor="#000000"
     borderopacity="0.25"
     inkscape:showpageshadow="2"
     inkscape:pageopacity="0.0"
     inkscape:pagecheckerboard="0"
     inkscape:deskcolor="#d1d1d1"
     inkscape:document-units="mm"
     inkscape:zoom="0.69705297"
     inkscape:cx="272.57613"
     inkscape:cy="205.86671"
     inkscape:window-width="1440"
     inkscape:window-height="790"
     inkscape:window-x="0"
     inkscape:window-y="25"
     inkscape:window-maximized="0"
     inkscape:current-layer="layer1" /><defs
     id="defs1" /><g
     inkscape:label="Layer 1"
     inkscape:groupmode="layer"
     id="layer1"
     transform="translate(-30.123439,-49.980412)"><path
       d="m 137.8536,50.548336 c -1.55056,-0.0441 -1.77376,-0.0128 -1.88567,0.264583 -0.11861,0.29394 -1.30052,3.591309 -3.52692,9.839193 -0.51855,1.455198 -1.18146,3.30374 -1.47278,4.107759 l -0.52968,1.461927 1.5136,-0.05064 1.51412,-0.05064 0.46974,-1.411283 0.47026,-1.411284 3.35638,-0.04754 3.35638,-0.04806 0.52969,1.458825 0.52916,1.458826 1.52239,0.05116 1.52291,0.05116 -0.5271,-1.461926 c -0.28972,-0.804139 -1.55185,-4.319946 -2.805,-7.812443 l -2.27841,-6.35 z m -0.0997,3.577559 c 0.053,0 0.11105,0.01681 0.16174,0.05116 0.2435,0.16504 2.38599,6.395132 2.26601,6.589262 -0.12526,0.20268 -4.61106,0.193411 -4.73666,-0.0098 -0.0933,-0.15104 1.94593,-6.310983 2.17816,-6.579443 0.0297,-0.03435 0.0777,-0.05116 0.13075,-0.05116 z"
       style="fill:#ebbc56;fill-opacity:1;stroke:none;stroke-width:0.25;stroke-dasharray:none;stroke-opacity:1"
       id="path32"
       inkscape:export-filename="path32.svg"
       inkscape:export-xdpi="96"
       inkscape:export-ydpi="96" /><path
       d="m 147.87056,50.480123 v 7.864119 7.86412 h 1.41128 1.41077 l 5.2e-4,-3.086633 v -3.087151 l 0.92552,5.17e-4 h 0.92604 l 1.73685,3.086634 1.73684,3.086633 h 1.67329 1.67328 l -0.34468,-0.573092 c -2.04699,-3.408826 -3.21221,-5.467359 -3.21221,-5.674589 0,-0.13811 0.28465,-0.34511 0.63252,-0.45992 1.3277,-0.43818 2.62224,-2.063885 2.82567,-3.548104 0.0596,-0.43466 0.0156,-1.238782 -0.0982,-1.786971 -0.265,-1.276469 -1.3479,-2.540395 -2.69337,-3.143994 -0.8697,-0.39016 -1.18474,-0.421587 -4.76767,-0.479557 z m 2.91042,2.410705 1.94045,0.0052 c 2.18582,0.005 2.88635,0.242899 3.34811,1.135848 0.33632,0.650369 0.34374,1.775988 0.0165,2.559017 -0.40886,0.978549 -1.31641,1.327568 -3.45147,1.327568 -1.2969,0 -1.8001,-0.06215 -1.86448,-0.229961 -0.0485,-0.126399 -0.0661,-1.257492 -0.0388,-2.513541 z"
       style="fill:#ebbc56;fill-opacity:1;stroke:none;stroke-width:0.25;stroke-dasharray:none;stroke-opacity:1"
       id="path31" /><path
       d="m 162.96318,50.157145 c -1.58721,0 -1.86345,0.04132 -1.86345,0.280603 0,0.15452 1.19062,2.565606 2.64583,5.357813 l 2.64583,5.076692 v 2.844788 2.844271 h 1.76372 1.76423 l 5.2e-4,-2.778125 5.2e-4,-2.778125 2.72851,-5.288049 c 1.50072,-2.908238 2.66439,-5.35166 2.58589,-5.43016 -0.0785,-0.0785 -0.96074,-0.119784 -1.9606,-0.09198 l -1.81798,0.05013 -1.64279,3.522783 -1.6428,3.522782 -0.42994,-0.965316 c -0.23644,-0.530749 -0.98876,-2.135749 -1.67174,-3.566707 l -1.24178,-2.601392 z m 8.78034,0.35295 h 1.55753 c 0.8565,0 1.55701,0.02696 1.55701,0.06046 0,0.03352 -1.1891,2.355247 -2.64273,5.159375 l -2.64325,5.098396 -0.003,2.690276 -0.003,2.689758 h -1.41076 -1.41129 v -2.69234 -2.692859 l -2.64583,-5.080827 c -1.45521,-2.794347 -2.64583,-5.117492 -2.64583,-5.162992 0,-0.0454 0.72731,-0.05994 1.61644,-0.03204 l 1.61695,0.05064 1.66812,3.557923 c 1.09522,2.335477 1.74517,3.528556 1.89084,3.472656 0.12206,-0.04684 0.95918,-1.66757 1.86035,-3.601848 z"
       style="fill:#ebbc56;fill-opacity:1;stroke:none;stroke-width:0.25;stroke-dasharray:none;stroke-opacity:1"
       id="path30" /><path
       d="m 147.51813,50.123556 v 8.218619 8.21862 h 1.76371 1.76372 v -3.086633 -3.086634 l 0.66146,0.0041 0.66146,0.0036 1.72754,3.083016 1.72806,3.083016 h 1.93218 c 1.52174,0 1.93218,-0.05143 1.93218,-0.242363 0,-0.133359 -0.79315,-1.582293 -1.76268,-3.219441 -0.96953,-1.637149 -1.76296,-3.01643 -1.7632,-3.06493 -2.4e-4,-0.04851 0.35669,-0.234925 0.79323,-0.414445 1.51764,-0.624119 2.73265,-2.557566 2.73265,-4.348055 0,-1.969928 -1.3104,-3.889759 -3.14967,-4.614188 -0.90081,-0.35481 -1.37624,-0.398521 -5.00797,-0.463021 z m 0.35243,0.356567 3.83646,0.06201 c 3.58293,0.05797 3.89797,0.0894 4.76767,0.479557 1.34547,0.603599 2.42837,1.867525 2.69337,3.143994 0.1138,0.548189 0.15779,1.352311 0.0982,1.786971 -0.20343,1.484219 -1.49797,3.109924 -2.82567,3.548104 -0.34787,0.11481 -0.63252,0.32181 -0.63252,0.45992 0,0.20723 1.16522,2.265763 3.21221,5.674589 l 0.34468,0.573092 h -1.67328 -1.67329 l -1.73684,-3.086633 -1.73685,-3.086634 h -0.92604 l -0.92552,-5.17e-4 v 3.087151 l -5.2e-4,3.086633 h -1.41077 -1.41128 v -7.86412 z"
       style="fill:#ebbc56;fill-opacity:1;stroke:none;stroke-width:0.25;stroke-dasharray:none;stroke-opacity:1"
       id="path29" /><path
       d="m 114.35684,50.509578 v 7.849651 7.849133 h 1.41129 1.41076 v -5.380034 c 0,-4.387955 0.0438,-5.379516 0.2372,-5.379516 0.13044,0 1.84947,2.420599 3.81992,5.379516 l 3.58273,5.380034 h 1.47174 1.47175 v -7.849133 -7.849651 h -1.41129 -1.41076 v 5.380034 c 0,4.468685 -0.0413,5.380033 -0.24443,5.380033 -0.1345,0 -1.84534,-2.421106 -3.80132,-5.380033 l -3.55637,-5.380034 h -1.49035 z"
       style="fill:#ebbc56;fill-opacity:1;stroke:none;stroke-width:0.25;stroke-dasharray:none;stroke-opacity:1"
       id="path28" /><path
       d="m 102.62681,50.49976 -2.733683,7.620207 c -1.503721,4.191195 -2.760447,7.729342 -2.792594,7.862052 -0.04662,0.19244 0.236879,0.230693 1.400431,0.189653 l 1.458826,-0.05168 0.52142,-1.458826 0.52089,-1.458825 3.34605,0.04806 3.34605,0.04754 0.52555,1.455208 0.52555,1.455209 h 1.4826 c 0.81561,0 1.47829,-0.0595 1.47278,-0.132292 -0.005,-0.0728 -1.25554,-3.585112 -2.77813,-7.805208 l -2.76831,-7.672917 -1.76371,-0.04909 z m 1.75493,3.646806 c 0.20972,0.0805 2.39004,6.071351 2.39004,6.567041 0,0.24208 -4.68522,0.294163 -4.83382,0.05374 -0.0509,-0.0823 0.30287,-1.293106 0.786,-2.690275 1.35949,-3.931556 1.40053,-4.029229 1.65778,-3.930509 z"
       style="fill:#ebbc56;fill-opacity:1;stroke:none;stroke-width:0.25;stroke-dasharray:none;stroke-opacity:1"
       id="path27" /><path
       d="m 87.336271,50.350932 c -0.679136,0.0062 -1.373125,0.09062 -2.071708,0.255281 -3.494626,0.82371 -5.824185,3.923807 -5.830652,7.759733 -0.0065,3.832037 2.169388,6.721166 5.838403,7.751465 1.274649,0.35793 3.622754,0.248973 4.97179,-0.230477 1.807722,-0.642469 3.555641,-2.222252 4.123779,-3.727421 l 0.202572,-0.537435 h -1.599386 -1.599385 l -0.620117,0.725021 c -0.848831,0.991659 -1.921005,1.434404 -3.471106,1.433504 -1.451801,-8.5e-4 -2.24531,-0.290016 -3.22616,-1.176156 -2.209351,-1.996018 -2.304987,-6.330312 -0.183968,-8.32714 1.020258,-0.960519 2.01818,-1.354134 3.410644,-1.344104 1.585389,0.0114 2.554073,0.404794 3.420463,1.389063 l 0.681096,0.773596 h 1.609204 c 0.885146,0 1.608564,-0.0595 1.607654,-0.132292 -0.0049,-0.388459 -1.139221,-2.027389 -1.815393,-2.622579 -1.505141,-1.324873 -3.410323,-2.00872 -5.44773,-1.990059 z"
       style="fill:#ebbc56;fill-opacity:1;stroke:none;stroke-width:0.25;stroke-dasharray:none;stroke-opacity:1"
       id="path26" /><path
       d="m 171.74352,50.510095 -1.63814,3.516581 c -0.90117,1.934278 -1.73829,3.555008 -1.86035,3.601848 -0.14567,0.0559 -0.79562,-1.137179 -1.89084,-3.472656 l -1.66812,-3.557923 -1.61695,-0.05064 c -0.88913,-0.0279 -1.61644,-0.01336 -1.61644,0.03204 0,0.0455 1.19062,2.368645 2.64583,5.162992 l 2.64583,5.080827 v 2.692859 2.692342 h 1.41129 1.41076 l 0.003,-2.689758 0.003,-2.690276 2.64325,-5.098396 c 1.45363,-2.804128 2.64273,-5.125855 2.64273,-5.159375 0,-0.0335 -0.70051,-0.06046 -1.55701,-0.06046 z"
       style="fill:#ebbc56;fill-opacity:1;stroke:none;stroke-width:0.25;stroke-dasharray:none;stroke-opacity:1"
       id="path25" /><path
       d="m 135.78809,50.244995 -0.76791,2.116667 c -2.51956,6.944663 -4.96455,13.843947 -4.96455,14.008447 0,0.12466 0.62848,0.191203 1.80971,0.191203 h 1.81022 l 0.51987,-1.49965 0.51986,-1.499134 h 3.09594 3.09645 l 0.51986,1.499134 0.51935,1.49965 h 1.83451 1.83452 l -0.11111,-0.442867 c -0.0611,-0.2434 -1.3597,-3.914146 -2.88561,-8.157642 l -2.77451,-7.715808 h -2.0283 z m 2.06551,0.303341 1.75907,0.04961 2.27841,6.35 c 1.25315,3.492497 2.51528,7.008304 2.805,7.812443 l 0.5271,1.461926 -1.52291,-0.05116 -1.52239,-0.05116 -0.52916,-1.458826 -0.52969,-1.458825 -3.35638,0.04806 -3.35638,0.04754 -0.47026,1.411284 -0.46974,1.411283 -1.51412,0.05064 -1.5136,0.05064 0.52968,-1.461927 c 0.29132,-0.804019 0.95423,-2.652561 1.47278,-4.107759 2.2264,-6.247884 3.40831,-9.545253 3.52692,-9.839193 0.11191,-0.27738 0.33511,-0.308683 1.88567,-0.264583 z"
       style="fill:#ebbc56;fill-opacity:1;stroke:none;stroke-width:0.25;stroke-dasharray:none;stroke-opacity:1"
       id="path24" /><path
       d="m 87.369344,49.980412 c -3.884113,0 -7.070062,2.400736 -8.044987,6.062162 -0.358092,1.344849 -0.310681,3.566853 0.104903,4.912362 0.426222,1.379938 1.474649,3.045688 2.401921,3.815787 0.888794,0.73814 2.589468,1.576119 3.597713,1.773019 2.063599,0.403009 4.232492,0.117952 6.029606,-0.792717 1.156802,-0.586199 2.602666,-2.035442 3.105237,-3.112471 0.642824,-1.377939 0.652817,-1.368909 -1.520321,-1.368909 h -1.910994 l -0.567924,0.706417 c -1.897942,2.361738 -5.858213,1.849783 -7.282243,-0.941545 -0.72683,-1.424718 -0.736716,-3.895666 -0.0217,-5.317504 0.74737,-1.486179 2.201709,-2.415547 3.833874,-2.448947 1.457953,-0.0298 2.564075,0.422833 3.424598,1.400432 l 0.687296,0.780314 h 1.873788 c 2.186971,0 2.180434,0.0076 1.312064,-1.621607 -1.251439,-2.347937 -3.987252,-3.846793 -7.022827,-3.846793 z m -0.03307,0.37052 c 2.037407,-0.01866 3.942589,0.665186 5.44773,1.990059 0.676172,0.59519 1.810493,2.23412 1.815393,2.622579 9.1e-4,0.07279 -0.722508,0.132292 -1.607654,0.132292 H 91.382536 L 90.70144,54.322266 c -0.86639,-0.984269 -1.835074,-1.377663 -3.420463,-1.389063 -1.392464,-0.01003 -2.390386,0.383585 -3.410644,1.344104 -2.121019,1.996828 -2.025383,6.331122 0.183968,8.32714 0.98085,0.88614 1.774359,1.175306 3.22616,1.176156 1.550101,9e-4 2.622275,-0.441845 3.471106,-1.433504 l 0.620117,-0.725021 h 1.599385 1.599386 l -0.202572,0.537435 c -0.568138,1.505169 -2.316057,3.084952 -4.123779,3.727421 -1.349036,0.47945 -3.697141,0.588407 -4.97179,0.230477 -3.669015,-1.030299 -5.844903,-3.919428 -5.838403,-7.751465 0.0065,-3.835926 2.336026,-6.936023 5.830652,-7.759733 0.698583,-0.164662 1.392572,-0.249061 2.071708,-0.255281 z"
       style="fill:#ebbc56;fill-opacity:1;stroke:none;stroke-width:0.25;stroke-dasharray:none;stroke-opacity:1"
       id="path23" /><path
       d="m 106.36508,50.146293 -2.02623,0.04961 -2.02623,0.04909 -2.884064,8.025867 c -1.586278,4.414135 -2.884785,8.085358 -2.885612,8.158158 -8.27e-4,0.07279 0.824362,0.132292 1.833997,0.132292 H 100.213 l 0.52555,-1.455208 0.52555,-1.455209 3.08509,-0.04806 3.0856,-0.04858 0.50643,1.459343 0.50642,1.459342 1.80816,0.05013 c 1.49563,0.04158 1.80764,0.0056 1.80764,-0.208772 0,-0.14256 -1.28185,-3.838537 -2.84892,-8.213453 z m -3.73827,0.353467 1.76372,0.04909 1.76371,0.04909 2.76831,7.672917 c 1.52259,4.220096 2.77313,7.732408 2.77813,7.805208 0.006,0.07279 -0.65717,0.132292 -1.47278,0.132292 h -1.4826 l -0.52555,-1.455209 -0.52555,-1.455208 -3.34605,-0.04754 -3.34605,-0.04806 -0.52089,1.458825 -0.52142,1.458826 -1.458826,0.05168 c -1.163552,0.04104 -1.447051,0.0028 -1.400431,-0.189653 0.03215,-0.13271 1.288873,-3.670857 2.792594,-7.862052 z"
       style="fill:#ebbc56;fill-opacity:1;stroke:none;stroke-width:0.25;stroke-dasharray:none;stroke-opacity:1"
       id="path22" /><path
       d="m 117.53339,50.144226 -1.7203,0.05064 -1.72083,0.05013 -0.046,8.158158 -0.046,8.158159 h 1.76578 1.76578 l 0.002,-5.336109 0.002,-5.335591 3.54293,5.335591 3.54294,5.336109 h 1.74666 1.74615 V 58.35923 50.157146 h -1.76372 -1.76423 l -0.003,5.335592 -0.003,5.335591 -3.52382,-5.341792 z m -3.17655,0.365352 h 1.49087 1.49035 l 3.55637,5.380034 c 1.95598,2.958927 3.66682,5.380033 3.80132,5.380033 0.20316,0 0.24443,-0.911348 0.24443,-5.380033 v -5.380034 h 1.41076 1.41129 v 7.849651 7.849133 h -1.47175 -1.47174 l -3.58273,-5.380034 c -1.97045,-2.958917 -3.68948,-5.379516 -3.81992,-5.379516 -0.19345,0 -0.2372,0.991561 -0.2372,5.379516 v 5.380034 h -1.41076 -1.41129 v -7.849133 z"
       style="fill:#ebbc56;fill-opacity:1;stroke:none;stroke-width:0.25;stroke-dasharray:none;stroke-opacity:1"
       id="path21" /><path
       d="m 98.151632,69.079504 c -2.991337,-0.152267 -6.030622,0.371144 -8.69456,1.591118 -4.544434,2.081158 -8.08569,6.254547 -9.425781,11.108882 -0.561071,2.032423 -0.76458,5.750031 -0.429431,7.841899 1.299268,8.109522 7.539787,13.941007 15.792834,14.757237 1.024019,0.10128 4.149195,-0.0516 5.332496,-0.26096 4.48733,-0.79382 8.75455,-3.6258 11.25047,-7.466732 3.36624,-5.180265 3.8172,-12.155954 1.1529,-17.830953 -1.2722,-2.709827 -4.0158,-5.749447 -6.56962,-7.278625 -2.47423,-1.481524 -5.41797,-2.309598 -8.409308,-2.461866 z m -0.991154,5.951575 c 1.154964,2.05e-4 2.306703,0.08879 2.987932,0.266134 4.60633,1.199799 7.5425,5.212807 7.80779,10.670666 0.29849,6.141134 -2.7661,10.936968 -7.8326,12.256616 -1.302391,0.33923 -4.73972,0.329684 -6.051823,-0.01654 v 5.17e-4 c -1.708801,-0.45082 -3.164166,-1.285622 -4.404899,-2.526461 -1.344253,-1.344359 -2.071683,-2.531905 -2.765206,-4.514453 -0.464889,-1.328969 -0.493996,-1.58602 -0.49816,-4.410067 -0.004,-2.678997 0.03976,-3.130209 0.407727,-4.233333 1.269118,-3.804596 3.837896,-6.333334 7.342187,-7.227983 0.693942,-0.17716 1.852088,-0.265305 3.007052,-0.2651 z"
       style="fill:none;fill-opacity:1;stroke:#ebbc56;stroke-width:1.9;stroke-opacity:1"
       id="path20" /><path
       d="m 125.99851,69.42832 -5.55625,0.04341 -0.0134,17.330208 -0.0134,17.330212 h 3.31866 3.31866 l 0.046,-6.659029 0.046,-6.658508 4.14549,-0.107487 c 4.38416,-0.11362 4.83448,-0.16122 6.7908,-0.72037 1.85905,-0.531339 3.21413,-1.328465 4.59093,-2.700093 1.4403,-1.434859 2.07164,-2.526998 2.55695,-4.424536 0.9443,-3.692182 -0.17153,-7.930555 -2.68666,-10.206612 -3.05308,-2.762888 -5.85644,-3.310044 -16.54369,-3.227194 z m 1.14618,5.511292 h 3.79254 c 4.34406,0 5.13312,0.162279 6.30246,1.297078 1.13139,1.097989 1.37045,1.779384 1.37045,3.906222 0,2.077268 -0.2486,2.780022 -1.35133,3.816821 -1.28139,1.204769 -2.53823,1.466385 -7.07658,1.471745 -2.22397,0.003 -2.98158,-0.05227 -3.0458,-0.219625 -0.047,-0.12251 -0.064,-2.483563 -0.0382,-5.247225 z"
       style="fill:none;fill-opacity:1;stroke:#ebbc56;stroke-width:1.9;stroke-opacity:1"
       id="path19" /><path
       d="m 162.51101,69.135315 c -2.2859,-0.013 -3.19428,0.05382 -4.23333,0.311092 -5.33464,1.321019 -8.34413,5.084873 -8.05946,10.079488 0.11366,1.994358 0.4573,3.109062 1.38751,4.502051 1.52059,2.277108 3.42418,3.263839 10.55233,5.470467 3.59663,1.113389 4.77027,1.833406 5.5547,3.407544 1.09594,2.199268 -0.0298,4.830892 -2.45463,5.738151 -0.75135,0.28112 -1.39617,0.372337 -2.62155,0.371037 -1.91475,-0.002 -2.97401,-0.39724 -4.05349,-1.512569 -0.60821,-0.6284 -1.36375,-2.187423 -1.36375,-2.813782 0,-0.21791 -0.55709,-0.258382 -3.58686,-0.258382 h -3.58686 l 0.14935,1.102775 c 0.31222,2.305678 1.26556,4.115394 3.00188,5.698873 2.40275,2.19125 5.96373,3.31111 10.10791,3.17862 1.54059,-0.0493 2.74462,-0.19229 3.66903,-0.43563 2.03473,-0.53561 3.70932,-1.48678 5.15524,-2.9285 1.44054,-1.436387 2.07124,-2.529013 2.55643,-4.426091 0.87746,-3.430807 0.0738,-6.554971 -2.24431,-8.723499 -1.70423,-1.594228 -3.19663,-2.271918 -9.28315,-4.216796 -2.70627,-0.86475 -3.85724,-1.415008 -4.7625,-2.276347 -0.96091,-0.914309 -1.23678,-1.530418 -1.23972,-2.768307 -0.005,-1.943868 1.14444,-3.490599 2.95693,-3.980119 0.39736,-0.107319 1.36623,-0.161902 2.15284,-0.120922 2.43888,0.127079 4.31478,1.383006 4.83329,3.234944 l 0.22066,0.785999 h 3.66076 3.66076 l -0.24185,-1.278475 c -0.69374,-3.672416 -3.36317,-6.43474 -7.39024,-7.647079 -1.43374,-0.431619 -1.86938,-0.479603 -4.49792,-0.494543 z"
       style="fill:none;fill-opacity:1;stroke:#ebbc56;stroke-width:1.9;stroke-opacity:1"
       id="path18" /><path
       d="m 162.32653,68.752393 c 1.57388,2.01e-4 3.14978,0.113034 4.11551,0.337963 2.80028,0.65244 5.62321,2.549563 7.01042,4.711341 0.64352,1.002849 1.34106,3.060349 1.43196,4.224548 l 0.062,0.79375 -4.01268,0.04754 c -3.14885,0.0372 -4.01344,-5.96e-4 -4.01422,-0.176216 -0.005,-1.210709 -0.98294,-2.559567 -2.36265,-3.258716 -1.30903,-0.663339 -3.57656,-0.779089 -4.78524,-0.24443 -1.05298,0.46579 -1.43713,0.800021 -1.84433,1.60352 -1.04272,2.057518 -0.36607,3.927671 1.88051,5.198649 0.46822,0.2649 2.73038,1.101512 5.0276,1.858802 4.75013,1.565898 6.19561,2.254232 7.78247,3.7083 2.97536,2.726378 3.61433,7.178715 1.6154,11.256161 -1.30666,2.665335 -4.23506,4.847945 -7.47603,5.572785 -2.07233,0.46348 -5.60798,0.52072 -7.43158,0.12041 v 5.2e-4 c -2.15143,-0.47227 -3.57158,-1.03066 -5.00642,-1.96733 -2.741,-1.78934 -4.34742,-4.468137 -4.54597,-7.580414 l -0.0506,-0.79375 h 3.86954 3.86953 l 0.24133,0.952914 c 0.36679,1.447738 1.08873,2.363498 2.36523,3.001367 0.94929,0.47437 1.27201,0.543636 2.53111,0.543636 2.55049,0 4.01785,-0.724721 4.77955,-2.360579 0.72946,-1.566619 0.48601,-3.054851 -0.69195,-4.23075 -0.95635,-0.954669 -2.13116,-1.495899 -5.41827,-2.494938 -1.47825,-0.44928 -3.25212,-1.018333 -3.94188,-1.264522 -5.18024,-1.848968 -7.51582,-4.772718 -7.51582,-9.408728 0,-1.437679 0.53068,-3.591598 1.18649,-4.814177 1.18707,-2.213008 4.18484,-4.287809 7.22488,-5.000728 0.95831,-0.224735 2.53026,-0.337132 4.10415,-0.33693 z"
       style="fill:none;fill-opacity:1;stroke:none;stroke-width:1.9;stroke-opacity:1"
       id="path17" /><path
       d="m 67.587831,54.484701 c -0.187802,-0.002 -0.263348,0.12752 -0.141593,0.32453 0.14647,0.23699 0.393948,0.24166 0.536918,0.0103 0.0604,-0.0977 -0.01775,-0.22648 -0.173633,-0.28628 -0.08443,-0.0324 -0.159091,-0.0478 -0.221692,-0.0486 z"
       style="fill:none;fill-opacity:1;stroke:#ebbc56;stroke-width:0.4;stroke-dasharray:none;stroke-opacity:1"
       id="path16" /><path
       d="m 67.619871,54.115211 c -0.48758,0 -0.740099,0.59774 -0.417029,0.98702 0.2727,0.32858 0.858866,0.25733 1.104325,-0.13435 0.2426,-0.38713 -0.132757,-0.85267 -0.687296,-0.85267 z m -0.03204,0.36949 c 0.0626,7.3e-4 0.137262,0.0162 0.221692,0.0486 0.15588,0.0598 0.234033,0.18858 0.173633,0.28628 -0.14297,0.23133 -0.390448,0.22666 -0.536918,-0.0103 -0.121755,-0.19701 -0.04621,-0.32673 0.141593,-0.32453 z"
       style="fill:none;fill-opacity:1;stroke:#ebbc56;stroke-width:0.4;stroke-dasharray:none;stroke-opacity:1"
       id="path15" /><path
       d="m 67.732525,53.168501 c -1.293186,-0.0454 -2.210309,1.58895 -1.168921,2.63033 0.55669,0.5567 1.620889,0.59366 2.177129,0.0754 0.844809,-0.78706 0.616726,-2.1374 -0.435633,-2.5771 -0.195478,-0.0817 -0.387834,-0.12219 -0.572575,-0.12868 z m -0.112654,0.94671 c 0.554539,0 0.929896,0.46554 0.687296,0.85267 -0.245459,0.39168 -0.831625,0.46293 -1.104325,0.13435 -0.32307,-0.38928 -0.07055,-0.98702 0.417029,-0.98702 z"
       style="fill:none;fill-opacity:1;stroke:#ebbc56;stroke-width:0.4;stroke-dasharray:none;stroke-opacity:1"
       id="path14" /><path
       d="m 67.793504,52.783511 c -1.591783,-0.1102 -2.784082,1.94741 -1.485181,3.24632 0.29186,0.29186 0.708582,0.56391 0.926042,0.60461 2.306197,0.43204 3.370219,-2.66088 1.259871,-3.66231 -0.237604,-0.11275 -0.473335,-0.17287 -0.700732,-0.18862 z m -0.06098,0.38499 c 0.184741,0.006 0.377097,0.047 0.572575,0.12868 1.052359,0.4397 1.280442,1.79004 0.435633,2.5771 -0.55624,0.51821 -1.620439,0.48125 -2.177129,-0.0754 -1.041388,-1.04138 -0.124265,-2.67572 1.168921,-2.63033 z"
       style="fill:none;fill-opacity:1;stroke:#ebbc56;stroke-width:0.4;stroke-dasharray:none;stroke-opacity:1"
       id="path13" /><path
       d="m 67.532021,52.377341 c -0.480488,0.039 -0.96326,0.12292 -1.413867,0.25528 -1.106809,0.3251 -2.841896,1.20695 -3.239596,1.64641 -0.24873,0.27484 -0.21295,0.42621 0.40411,1.70067 0.372499,0.76934 0.88785,1.64833 1.14515,1.95337 0.504569,0.5982 0.599649,1.14765 0.24753,1.43247 -0.12127,0.0981 -0.93503,0.27098 -1.808159,0.38396 -2.578507,0.33365 -2.802312,0.43903 -3.800801,1.78593 -1.335829,1.80194 -3.822671,5.92931 -5.41259,8.98395 -1.367708,2.62772 -1.976147,3.91696 -3.891235,8.24446 l -0.876949,1.98231 1.434538,-1.18081 c 5.939374,-4.88857 10.633643,-9.28136 12.270052,-11.48199 0.966799,-1.30014 1.260494,-1.52027 1.800923,-1.34875 0.58175,0.18464 0.598171,0.89614 0.03979,1.70429 -1.966808,2.84643 -7.936036,8.41116 -14.58619,13.59658 -1.244688,0.97054 -2.328245,1.93161 -2.407605,2.13579 -0.0794,0.20418 -0.311767,0.79203 -0.516247,1.30638 l -0.371554,0.93483 0.662492,-0.51522 c 0.36436,-0.28346 1.892974,-1.413 3.396692,-2.50992 8.045642,-5.86904 14.278173,-11.26864 15.951481,-13.81983 1.637678,-2.49685 1.771378,-5.18032 0.364319,-7.30653 -0.38639,-0.58387 -0.434295,-0.77326 -0.272335,-1.0759 0.3375,-0.63061 1.113569,-0.48321 1.667599,0.31626 1.745198,2.51832 1.64839,5.73437 -0.270268,8.95707 -1.715288,2.88109 -9.668568,9.6023 -20.251477,17.11369 -2.178688,1.54636 -2.194203,1.56229 -2.396753,2.46858 l -0.204122,0.91261 0.89762,-0.35192 c 0.493729,-0.1933 1.57265,-0.71419 2.397269,-1.15807 2.315698,-1.24651 5.668386,-3.52456 8.289934,-5.63221 2.148797,-1.72758 2.386844,-1.97467 2.439644,-2.53112 0.072,-0.75937 0.305333,-1.05936 0.823722,-1.05936 0.52622,0 0.673697,0.22498 1.040247,1.58698 0.531309,1.97419 1.954302,4.22672 2.389001,3.78168 0.22452,-0.22987 0.527085,-3.15405 0.660425,-6.38565 0.12039,-2.91755 0.252231,-3.32089 1.03973,-3.17035 0.3157,0.0603 0.711534,-0.2418 1.884123,-1.43971 2.793837,-2.85416 5.012818,-5.6196 5.631697,-7.01869 0.71738,-1.62177 0.688865,-5.25588 -0.05994,-7.63881 -0.63685,-2.02674 -1.451534,-3.83814 -1.922364,-4.27468 -0.644419,-0.5975 -0.660129,-1.11681 -0.05271,-1.75079 0.39881,-0.41626 0.433501,-0.52982 0.234611,-0.76947 -0.492682,-0.59364 -1.91647,-0.88071 -3.357934,-0.76377 z m 0.261483,0.40617 c 0.227397,0.0157 0.463128,0.0759 0.700732,0.18862 2.110348,1.00143 1.046326,4.09435 -1.259871,3.66231 -0.21746,-0.0407 -0.634182,-0.31275 -0.926042,-0.60461 -1.298901,-1.29891 -0.106602,-3.35652 1.485181,-3.24632 z"
       style="fill:none;fill-opacity:1;stroke:#ebbc56;stroke-width:0.4;stroke-dasharray:none;stroke-opacity:1"
       id="path12" /><path
       d="m 68.615159,52.001651 c -1.913373,-0.10111 -4.260152,0.56798 -5.813082,1.88515 l -0.594279,0.50437 0.574125,1.37872 c 0.31577,0.75852 0.840931,1.72932 1.167371,2.15698 0.924069,1.2106 0.921254,1.21347 -1.360124,1.49086 -2.448117,0.29766 -2.790342,0.48261 -4.010091,2.16525 -1.752918,2.41813 -4.195503,6.64685 -6.214091,10.758 -2.289188,4.66227 -4.090097,8.76173 -3.849378,8.76173 0.0953,0 0.113625,0.0994 0.04082,0.22066 -0.15642,0.26035 0.04037,0.11529 1.963704,-1.4459 4.849465,-3.93637 10.845377,-9.52725 12.304676,-11.47321 0.889699,-1.1864 1.151081,-1.41612 1.470711,-1.29346 0.395249,0.15167 0.293953,0.48906 -0.439767,1.46555 -2.073008,2.75891 -6.756509,7.18311 -12.172383,11.49852 -1.707038,1.36019 -3.42101,2.7339 -3.80907,3.05304 -0.549529,0.45193 -0.816045,0.87971 -1.205094,1.93477 -0.67846,1.83995 -0.554846,2.07919 0.632002,1.22215 9.184141,-6.63201 16.530648,-12.68423 18.815906,-15.50087 1.289029,-1.58875 1.990729,-3.18891 2.092379,-4.77283 0.10743,-1.67405 -0.02087,-2.28435 -0.725537,-3.45457 -0.32009,-0.53155 -0.550614,-1.06079 -0.512114,-1.17616 0.14018,-0.42054 0.709768,-0.19374 1.134298,0.45166 1.768968,2.68933 1.359135,6.34805 -1.052132,9.3927 -2.495108,3.15054 -9.201827,8.67552 -19.526457,16.08584 l -2.286682,1.64125 -0.21084,1.0573 c -0.11591,0.58132 -0.173557,1.11712 -0.128157,1.19062 0.157189,0.25435 0.513213,0.12812 2.84427,-1.00665 2.698778,-1.31379 6.640607,-3.92513 9.668144,-6.40478 1.941758,-1.59037 2.108547,-1.77494 2.190047,-2.42414 0.06796,-0.54146 0.164834,-0.70229 0.422714,-0.70229 0.263719,0 0.404332,0.25496 0.664042,1.20303 0.401609,1.46609 0.878261,2.4385 1.680001,3.42718 0.585739,0.72233 0.972096,0.89051 1.407666,0.6134 0.236949,-0.15075 0.557262,-3.17576 0.732771,-6.91947 l 0.11989,-2.55747 0.52865,0.0393 c 0.636829,0.0472 1.445955,-0.69497 4.370792,-4.00802 2.176958,-2.4659 3.410893,-4.24518 3.768762,-5.43429 0.57711,-1.91762 0.224587,-5.88713 -0.753442,-8.48372 -0.24106,-0.64 -0.560331,-1.4995 -0.709001,-1.91048 -0.148669,-0.41097 -0.501035,-0.94166 -0.783414,-1.17926 -0.6566,-0.55248 -0.646773,-0.84172 0.05168,-1.49448 l 0.56534,-0.52865 -0.344682,-0.38706 c -0.570824,-0.64133 -1.562921,-0.97958 -2.710945,-1.04024 z m -1.083138,0.37569 c 1.441464,-0.11694 2.865252,0.17013 3.357934,0.76377 0.19889,0.23965 0.164199,0.35321 -0.234611,0.76947 -0.607419,0.63398 -0.591709,1.15329 0.05271,1.75079 0.47083,0.43654 1.285514,2.24794 1.922364,4.27468 0.748809,2.38293 0.777324,6.01704 0.05994,7.63881 -0.618879,1.39909 -2.83786,4.16453 -5.631697,7.01869 -1.172589,1.19791 -1.568423,1.50001 -1.884123,1.43971 -0.787499,-0.15054 -0.91934,0.2528 -1.03973,3.17035 -0.13334,3.2316 -0.435905,6.15578 -0.660425,6.38565 -0.434699,0.44504 -1.857692,-1.80749 -2.389001,-3.78168 -0.36655,-1.362 -0.514027,-1.58698 -1.040247,-1.58698 -0.518389,0 -0.751722,0.29999 -0.823722,1.05936 -0.0528,0.55645 -0.290847,0.80354 -2.439644,2.53112 -2.621548,2.10765 -5.974236,4.3857 -8.289934,5.63221 -0.824619,0.44388 -1.90354,0.96477 -2.397269,1.15807 l -0.89762,0.35192 0.204122,-0.91261 c 0.20255,-0.90629 0.218065,-0.92222 2.396753,-2.46858 10.582909,-7.51139 18.536189,-14.2326 20.251477,-17.11369 1.918658,-3.2227 2.015466,-6.43875 0.270268,-8.95707 -0.55403,-0.79947 -1.330099,-0.94687 -1.667599,-0.31626 -0.16196,0.30264 -0.114055,0.49203 0.272335,1.0759 1.407059,2.12621 1.273359,4.80968 -0.364319,7.30653 -1.673308,2.55119 -7.905839,7.95079 -15.951481,13.81983 -1.503718,1.09692 -3.032332,2.22646 -3.396692,2.50992 l -0.662492,0.51522 0.371554,-0.93483 c 0.20448,-0.51435 0.436847,-1.1022 0.516247,-1.30638 0.07936,-0.20418 1.162917,-1.16525 2.407605,-2.13579 6.650154,-5.18542 12.619382,-10.75015 14.58619,-13.59658 0.55838,-0.80815 0.541959,-1.51965 -0.03979,-1.70429 -0.540429,-0.17152 -0.834124,0.0486 -1.800923,1.34875 -1.636409,2.20063 -6.330678,6.59342 -12.270052,11.48199 l -1.434538,1.18081 0.876949,-1.98231 c 1.915088,-4.3275 2.523527,-5.61674 3.891235,-8.24446 1.589919,-3.05464 4.076761,-7.18201 5.41259,-8.98395 0.998489,-1.3469 1.222294,-1.45228 3.800801,-1.78593 0.873129,-0.11298 1.686889,-0.28586 1.808159,-0.38396 0.352119,-0.28482 0.257039,-0.83427 -0.24753,-1.43247 -0.2573,-0.30504 -0.772651,-1.18403 -1.14515,-1.95337 -0.61706,-1.27446 -0.65284,-1.42583 -0.40411,-1.70067 0.3977,-0.43946 2.132787,-1.32131 3.239596,-1.64641 0.450607,-0.13236 0.933379,-0.2163 1.413867,-0.25528 z"
       style="fill:none;fill-opacity:1;stroke:#ebbc56;stroke-width:0.4;stroke-dasharray:none;stroke-opacity:1"
       id="path11" /><path
       d="m 68.767604,51.153121 c -0.829339,-0.0421 -1.949818,0.0154 -2.490287,0.12764 -2.032818,0.42201 -4.701636,2.10421 -5.723165,3.60753 -0.24391,0.35894 -0.756005,1.61485 -1.137915,2.79053 -0.479229,1.47529 -0.901361,2.41594 -1.362191,3.03547 -3.738276,5.02579 -8.452063,14.38274 -12.361519,24.53752 l -1.170471,3.04013 -4.486548,4.65191 c -5.183675,5.37473 -7.876371,8.328969 -8.76794,9.619569 -1.039139,1.50424 -0.466387,1.6916 1.751831,0.57309 v 5.2e-4 c 2.784637,-1.40412 4.724686,-2.94447 7.376294,-5.856489 1.079149,-1.18513 2.409469,-2.7281 2.956408,-3.42873 0.79016,-1.0122 1.137477,-1.31439 1.690336,-1.47123 1.954559,-0.55447 5.370776,-2.39525 8.531263,-4.59662 1.097349,-0.76433 2.106587,-1.38958 2.242757,-1.38958 0.363639,0 0.516771,0.37179 1.502751,3.64371 0.492439,1.63412 1.024733,3.07025 1.182873,3.19153 0.29753,0.22819 1.743583,0.30136 2.233972,0.11317 0.41331,-0.1586 0.356432,-0.54561 -0.514697,-3.49952 -0.576129,-1.95361 -0.78884,-2.97653 -0.77618,-3.73156 0.0271,-1.61641 0.226482,-2.94572 0.453202,-3.02049 0.11341,-0.0374 0.417698,0.35251 0.675928,0.86662 0.25823,0.51412 0.74175,1.314 1.07487,1.77767 0.473709,0.65938 0.809258,1.56286 1.539957,4.14651 l 0.93431,3.30316 1.356507,0.0517 c 1.200338,0.0456 1.355989,0.0153 1.355989,-0.26149 0,-0.17206 -0.433736,-1.90312 -0.963765,-3.84679 -0.962919,-3.5311 -0.963376,-3.53523 -0.805636,-5.11855 0.0868,-0.87152 0.21201,-2.57675 0.278019,-3.78943 l 0.11989,-2.20452 1.973006,-2.02882 c 2.387758,-2.45512 3.590849,-3.84704 5.016748,-5.80481 1.501708,-2.06183 1.822107,-2.97915 1.924947,-5.50767 0.0922,-2.26771 -0.296976,-4.63746 -1.121895,-6.82904 -0.23323,-0.61963 -0.423747,-1.21992 -0.423747,-1.33377 0,-0.11385 0.336999,-0.2975 0.749308,-0.40825 0.7082,-0.19024 1.543575,-0.777 1.543575,-1.08417 0,-0.29632 -1.309115,-1.43055 -1.861385,-1.61282 -0.318929,-0.10525 -0.789534,-0.46603 -1.045414,-0.8015 -0.727889,-0.95432 -1.699627,-1.36323 -3.451986,-1.45211 z m -0.152445,0.84853 c 1.148024,0.0607 2.140121,0.39891 2.710945,1.04024 l 0.344682,0.38706 -0.56534,0.52865 c -0.698449,0.65276 -0.708276,0.942 -0.05168,1.49448 0.282379,0.2376 0.634745,0.76829 0.783414,1.17926 0.14867,0.41098 0.467941,1.27048 0.709001,1.91048 0.978029,2.59659 1.330552,6.5661 0.753442,8.48372 -0.357869,1.18911 -1.591804,2.96839 -3.768762,5.43429 -2.924837,3.31305 -3.733963,4.05521 -4.370792,4.00802 l -0.52865,-0.0393 -0.11989,2.55747 c -0.175509,3.74371 -0.495822,6.76872 -0.732771,6.91947 -0.43557,0.27711 -0.821927,0.10893 -1.407666,-0.6134 -0.80174,-0.98868 -1.278392,-1.96109 -1.680001,-3.42718 -0.25971,-0.94807 -0.400323,-1.20303 -0.664042,-1.20303 -0.25788,0 -0.354754,0.16083 -0.422714,0.70229 -0.0815,0.6492 -0.248289,0.83377 -2.190047,2.42414 -3.027537,2.47965 -6.969366,5.09099 -9.668144,6.40478 -2.331057,1.13477 -2.687081,1.261 -2.84427,1.00665 -0.0454,-0.0735 0.01225,-0.6093 0.128157,-1.19062 l 0.21084,-1.0573 2.286682,-1.64125 c 10.32463,-7.41032 17.031349,-12.9353 19.526457,-16.08584 2.411267,-3.04465 2.8211,-6.70337 1.052132,-9.3927 -0.42453,-0.6454 -0.994118,-0.8722 -1.134298,-0.45166 -0.0385,0.11537 0.192024,0.64461 0.512114,1.17616 0.704669,1.17022 0.832967,1.78052 0.725537,3.45457 -0.10165,1.58392 -0.80335,3.18408 -2.092379,4.77283 -2.285258,2.81664 -9.631765,8.86886 -18.815906,15.50087 -1.186848,0.85704 -1.310462,0.6178 -0.632002,-1.22215 0.389049,-1.05506 0.655565,-1.48284 1.205094,-1.93477 0.38806,-0.31914 2.102032,-1.69285 3.80907,-3.05304 5.415874,-4.31541 10.099375,-8.73961 12.172383,-11.49852 0.73372,-0.97649 0.835016,-1.31388 0.439767,-1.46555 -0.31963,-0.12266 -0.581012,0.10706 -1.470711,1.29346 -1.459299,1.94596 -7.455211,7.53684 -12.304676,11.47321 -1.923338,1.56119 -2.120124,1.70625 -1.963704,1.4459 0.0728,-0.12127 0.05448,-0.22066 -0.04082,-0.22066 -0.240719,0 1.56019,-4.09946 3.849378,-8.76173 2.018588,-4.11115 4.461173,-8.33987 6.214091,-10.758 1.219749,-1.68264 1.561974,-1.86759 4.010091,-2.16525 2.281378,-0.27739 2.284193,-0.28026 1.360124,-1.49086 -0.32644,-0.42766 -0.851601,-1.39846 -1.167371,-2.15698 l -0.574125,-1.37872 0.594279,-0.50437 c 1.55293,-1.31717 3.899709,-1.98626 5.813082,-1.88515 z"
       style="fill:none;fill-opacity:1;stroke:#ebbc56;stroke-width:0.4;stroke-dasharray:none;stroke-opacity:1"
       id="path10" /><path
       d="m 68.158856,50.854951 c -2.211698,0.003 -2.342275,0.0241 -3.687114,0.601 -1.360668,0.58367 -2.957114,1.69794 -3.774963,2.63446 -0.637859,0.73041 -1.185781,1.9111 -1.72961,3.72897 -0.40818,1.36443 -0.720719,1.98731 -1.683618,3.35277 -3.746126,5.31222 -8.178235,14.20255 -11.893331,23.85694 l -1.205611,3.13262 -3.975985,4.10001 c -6.983253,7.20121 -9.885185,10.497049 -9.885185,11.226709 0,0.16395 0.09546,0.39312 0.211874,0.50953 0.368529,0.36853 1.087065,0.23222 2.577103,-0.48834 1.796219,-0.86863 3.090442,-1.74563 4.79609,-3.25045 1.494149,-1.318239 4.52612,-4.584659 5.780009,-6.226499 0.765359,-1.00215 0.944012,-1.13111 2.157491,-1.56372 2.419288,-0.86249 5.453209,-2.55959 8.428426,-4.71393 1.393739,-1.00921 1.473634,-1.04284 1.714624,-0.7245 0.13898,0.18359 0.254866,0.44174 0.257866,0.57361 0.0031,0.13188 0.369661,1.44156 0.81442,2.91041 0.51901,1.71408 0.936937,2.78103 1.166337,2.97915 0.40792,0.35229 2.223813,0.43409 2.799313,0.12609 0.509679,-0.27277 0.434273,-0.92032 -0.452686,-3.8933 -0.814099,-2.72876 -0.876712,-3.19481 -0.680062,-5.07618 l 0.114205,-1.08985 0.328145,0.7338 c 0.18064,0.40347 0.606596,1.11194 0.946196,1.57458 0.494049,0.67302 0.798922,1.48844 1.524971,4.07882 0.4991,1.78064 0.984488,3.33692 1.078488,3.45819 0.227149,0.29307 2.799357,0.30019 3.090767,0.009 0.33022,-0.33023 0.276056,-0.64633 -0.772563,-4.49171 -0.541469,-1.98562 -0.943152,-3.71839 -0.892452,-3.85041 0.05066,-0.13202 0.18566,-1.73396 0.30024,-3.55999 l 0.208256,-3.32021 2.175061,-2.24483 c 3.344447,-3.45279 5.724358,-6.557 6.366537,-8.30285 0.422789,-1.14943 0.513161,-4.65186 0.167432,-6.48642 -0.23971,-1.27201 -0.769183,-3.07557 -1.243852,-4.23489 -0.08574,-0.20942 0.05172,-0.32872 0.554488,-0.48059 0.784729,-0.23704 1.639176,-0.97551 1.639176,-1.41697 0,-0.40792 -1.136241,-1.48516 -2.04587,-1.93993 -0.397489,-0.19873 -0.853238,-0.56048 -1.012858,-0.80409 -0.15962,-0.24361 -0.668107,-0.66507 -1.129647,-0.93637 -0.803539,-0.47229 -0.93637,-0.49341 -3.132108,-0.49041 z m 0.608748,0.29817 c 1.752359,0.0889 2.724097,0.49779 3.451986,1.45211 0.25588,0.33547 0.726485,0.69625 1.045414,0.8015 0.55227,0.18227 1.861385,1.3165 1.861385,1.61282 0,0.30717 -0.835375,0.89393 -1.543575,1.08417 -0.412309,0.11075 -0.749308,0.2944 -0.749308,0.40825 0,0.11385 0.190517,0.71414 0.423747,1.33377 0.824919,2.19158 1.214095,4.56133 1.121895,6.82904 -0.10284,2.52852 -0.423239,3.44584 -1.924947,5.50767 -1.425899,1.95777 -2.62899,3.34969 -5.016748,5.80481 l -1.973006,2.02882 -0.11989,2.20452 c -0.06601,1.21268 -0.191219,2.91791 -0.278019,3.78943 -0.15774,1.58332 -0.157283,1.58745 0.805636,5.11855 0.530029,1.94367 0.963765,3.67473 0.963765,3.84679 0,0.27683 -0.155651,0.30709 -1.355989,0.26149 l -1.356507,-0.0517 -0.93431,-3.30316 c -0.730699,-2.58365 -1.066248,-3.48713 -1.539957,-4.14651 -0.33312,-0.46367 -0.81664,-1.26355 -1.07487,-1.77767 -0.25823,-0.51411 -0.562518,-0.90402 -0.675928,-0.86662 -0.22672,0.0748 -0.426102,1.40408 -0.453202,3.02049 -0.01266,0.75503 0.200051,1.77795 0.77618,3.73156 0.871129,2.95391 0.928007,3.34092 0.514697,3.49952 -0.490389,0.18819 -1.936442,0.11502 -2.233972,-0.11317 -0.15814,-0.12128 -0.690434,-1.55741 -1.182873,-3.19153 -0.98598,-3.27192 -1.139112,-3.64371 -1.502751,-3.64371 -0.13617,0 -1.145408,0.62525 -2.242757,1.38958 -3.160487,2.20137 -6.576704,4.04215 -8.531263,4.59662 -0.552859,0.15684 -0.900176,0.45903 -1.690336,1.47123 -0.546939,0.70063 -1.877259,2.2436 -2.956408,3.42873 -2.651608,2.912019 -4.591657,4.452369 -7.376294,5.856489 v -5.2e-4 c -2.218218,1.11851 -2.79097,0.93115 -1.751831,-0.57309 0.891569,-1.2906 3.584265,-4.244839 8.76794,-9.619569 l 4.486548,-4.65191 1.170471,-3.04013 c 3.909456,-10.15478 8.623243,-19.51173 12.361519,-24.53752 0.46083,-0.61953 0.882962,-1.56018 1.362191,-3.03547 0.38191,-1.17568 0.894005,-2.43159 1.137915,-2.79053 1.021529,-1.50332 3.690347,-3.18552 5.723165,-3.60753 0.540469,-0.11223 1.660948,-0.16974 2.490287,-0.12764 z"
       style="fill:none;fill-opacity:1;stroke:#ebbc56;stroke-width:0.4;stroke-dasharray:none;stroke-opacity:1"
       id="path9" /></g></svg>
