<?xml version="1.0" encoding="UTF-8" standalone="no"?>

<svg
   version="1.1"
   id="svg1"
   viewBox="0 0 549.70526 95.940131"
   xmlns="http://www.w3.org/2000/svg"
   xmlns:svg="http://www.w3.org/2000/svg">
  <defs
     id="defs1" />
  <g
     id="g1"
     transform="translate(-7.8140359,-5.363267)">
    <path
       style="fill:#eab305;fill-opacity:1"
       d="m 10.781814,97.470078 c 1.849587,-2.10834 7.123847,-7.73334 11.720577,-12.50001 l 8.357692,-8.66666 -0.420787,3 c -0.472576,3.36923 -3.630798,7.46642 -11.247452,14.59143 -3.655631,3.41966 -9.7674575,7.408562 -11.3514572,7.408562 -0.2318023,0 1.0918401,-1.724992 2.9414272,-3.833322 z m 353.935696,-0.88674 c -0.9563,-0.55699 -1.16667,-1.63522 -1.16667,-5.97972 v -5.30021 h 2.39925 c 3.88599,0 6.80403,-1.75822 7.58511,-4.5703 0.37118,-1.33634 0.67655,-2.77819 0.67859,-3.20413 0.002,-0.42593 -3.74628,-11.63937 -8.32961,-24.91875 -4.58334,-13.27939 -8.33334,-24.2559 -8.33334,-24.39225 0,-0.13635 3.67903,-0.24791 8.17562,-0.24791 h 8.17561 l 3.60657,13.03205 c 1.98362,7.16763 3.85459,13.18533 4.15772,13.37268 0.30313,0.18735 0.55115,0.0229 0.55115,-0.36538 0,-1.18504 0.0206,-1.26535 1.07693,-4.19673 0.56339,-1.56344 1.12605,-3.32465 1.25037,-3.9138 0.12432,-0.58914 0.9074,-3.28914 1.74018,-6 0.83279,-2.71085 1.54051,-5.07882 1.57272,-5.26215 0.0322,-0.18333 0.46533,-1.75833 0.96249,-3.5 l 0.90392,-3.16667 h 8.2467 c 4.53568,0 8.24669,0.10304 8.24669,0.22897 0,0.32568 -2.59418,7.90465 -3.11631,9.10437 -0.23936,0.55 -0.48702,1.15 -0.55036,1.33333 -0.0633,0.18333 -0.29077,0.78333 -0.5054,1.33333 -0.21464,0.55 -1.0539,3.1 -1.86501,5.66667 -0.81111,2.56667 -1.655,4.96667 -1.8753,5.33333 -0.22029,0.36667 -0.44263,0.89167 -0.49408,1.16667 -0.0514,0.275 -0.16854,0.65 -0.26021,0.83333 -0.0917,0.18334 -0.23007,0.55834 -0.30758,0.83334 -0.0775,0.275 -0.31652,0.95 -0.53116,1.5 -0.21464,0.55 -1.05366,3.1 -1.86449,5.66666 -0.81084,2.56667 -1.80931,5.08778 -2.21884,5.60247 -0.40953,0.51469 -0.6778,1.03654 -0.59617,1.15967 0.0816,0.12312 0.0301,0.60202 -0.11449,1.0642 -2.25492,7.20693 -3.28266,10.29055 -3.61298,10.84033 -0.22029,0.36667 -0.43027,0.81667 -0.46661,1 -0.0363,0.18333 -0.41593,1.17786 -0.84354,2.21007 -0.42761,1.0322 -0.77747,2.0779 -0.77747,2.32376 0,1.4202 -3.88378,7.76733 -5.42379,8.86391 -4.09682,2.9172 -13.01593,4.33131 -16.07621,2.54886 z m 105.97617,-0.35931 c -0.2619,-0.2619 -0.47617,-15.72618 -0.47617,-34.36507 v -33.88889 h 2.66666 2.66667 v 3 c 0,2.98092 0.77991,3.86875 1.80021,2.0493 0.77775,-1.38694 4.97601,-4.09536 7.78524,-5.02249 2.91988,-0.96365 12.08122,-0.98398 12.08122,-0.0268 0,0.0561 0.59455,0.21272 1.32123,0.34803 0.72668,0.13531 1.42668,0.56236 1.55555,0.94899 0.12888,0.38664 0.48625,0.70298 0.79416,0.70298 0.97127,0 4.76767,4.16051 6.04926,6.62946 2.39614,4.61609 3.41628,10.41573 3.0984,17.61489 -0.30859,6.98884 -0.81871,10.21752 -1.80142,11.40161 -0.31376,0.37805 -0.55239,0.94378 -0.5303,1.25718 0.0221,0.3134 -0.29883,1.0634 -0.71314,1.66667 -0.41432,0.60327 -1.43291,2.1183 -2.26353,3.36673 -2.29071,3.44297 -7.97443,6.13761 -12.88212,6.10737 -3.4804,-0.0214 -6.27935,-0.32746 -6.79476,-0.7429 -0.0917,-0.0739 -0.39167,-0.19325 -0.66667,-0.26525 -1.9638,-0.51415 -4.76081,-2.29923 -6.16666,-3.93563 l -1.66667,-1.93998 -0.33333,12.58659 -0.33334,12.58659 -2.35716,0.1984 c -1.29644,0.10911 -2.57144,-0.0159 -2.83333,-0.27778 z m 25.0951,-23.8378 c 5.73409,-2.39585 8.76528,-9.52216 8.68407,-20.41616 -0.0988,-13.25891 -5.01428,-20 -14.58353,-20 -4.76282,0 -7.56292,1.19931 -10.95086,4.69036 l -2.72095,2.80375 v 13.22975 13.22975 l 2.16094,2.46118 c 1.18853,1.35365 3.36353,3.00751 4.83334,3.67523 3.21169,1.45904 9.47676,1.6215 12.57699,0.32614 z m -437.528659,8.6959 c -0.325084,-0.85504 -1.05216,-3.1073 -1.615724,-5.00502 -0.956799,-3.2219 -0.949675,-3.4119 0.107563,-2.86881 0.622724,0.31988 1.443487,0.46839 1.823919,0.33001 0.541415,-0.19693 2.974972,6.92619 2.974972,8.70785 0,1.16692 -2.778131,0.18421 -3.29073,-1.16403 z m 11.078386,1.05461 c -0.160069,-0.275 -0.794758,-2.3 -1.410421,-4.5 -0.615663,-2.2 -1.260998,-4.48838 -1.434077,-5.0853 -0.215717,-0.74396 0.191812,-1.18212 1.295767,-1.39315 1.502192,-0.28716 1.705154,0.0377 3.019099,4.83216 0.774754,2.82701 1.408643,5.47893 1.408643,5.89315 0,0.83338 -2.417545,1.04595 -2.879011,0.25314 z m -37.476638,-4 c 0.546708,-2.97509 -0.37443,-2.07047 9.022317,-8.86048 18.252898,-13.18939 32.301168,-25.47123 35.046242,-30.63952 1.720815,-3.23987 1.759168,-10.99812 0.06715,-13.58435 -1.641915,-2.50967 -2.168126,-1.76474 -0.722218,1.0224 1.619387,3.12153 1.369759,7.76244 -0.629776,11.70833 -2.832962,5.59058 -15.418413,16.73658 -35.594736,31.52362 -3.025,2.217 -5.5,3.74989 -5.5,3.40644 0,-0.34345 0.625559,-2.25914 1.390129,-4.25709 1.276498,-3.3357 2.100069,-4.19307 10.075302,-10.48877 8.975925,-7.08566 20.237871,-17.4385 22.640916,-20.81327 2.123623,-2.98235 0.786815,-3.10761 -1.567285,-0.14685 -1.149912,1.44625 -4.216619,4.67133 -6.814905,7.16686 -5.21311,5.00694 -20.999177,18.07655 -21.377145,17.69858 -0.499848,-0.49985 8.905851,-20.56015 12.926421,-27.56923 7.678645,-13.38623 9.342335,-15 15.463956,-15 h 1.904053 l -2.318941,-4.2188 -2.31894,-4.2188 1.498221,-1.4064902 c 3.95051,-3.70864 11.770718,-5.25586 15.864661,-3.1388 2.306607,1.1928 2.467983,1.99198 0.63356,3.1376 -1.814568,1.1332202 -1.679635,1.9830002 0.643551,4.0529702 2.732375,2.43455 4.326313,8.00698 4.343077,15.18345 0.01288,5.51257 -0.07932,5.86408 -2.490596,9.49572 -3.364735,5.06766 -12.701595,15.49646 -13.019651,14.54229 -0.754259,-2.26278 -1.324155,0.0751 -1.723621,7.07086 -0.572001,10.01729 -0.823091,11.021 -2.528689,10.10819 -1.648831,-0.88243 -3.710845,-4.22454 -4.591265,-7.44153 -0.376309,-1.375 -0.944548,-2.5 -1.262755,-2.5 -0.318207,0 -0.431124,0.56379 -0.250926,1.25287 0.710181,2.71574 -23.842311,19.4138 -28.54566,19.4138 -0.471367,0 -0.562437,-0.86751 -0.262447,-2.5 z M 76.85373,13.006768 c 1.354004,-1.63148 0.590475,-4.0103502 -1.359943,-4.2370702 -2.412975,-0.28049 -3.702016,1.4023502 -2.72191,3.5534502 0.833439,1.8292 2.850717,2.16704 4.081853,0.68362 z m -3.078991,-1.41484 c -0.220512,-0.57465 -0.05895,-1.38679 0.359019,-1.8047702 0.938291,-0.93829 3.161147,0.9790102 2.456631,2.1189402 -0.665398,1.07663 -2.354259,0.88819 -2.81565,-0.31417 z m 61.442781,66.2875 c -7.27567,-0.92543 -11.40313,-2.90718 -16.07167,-7.71661 -5.58751,-5.75613 -8.03999,-13.40877 -8.20591,-25.60548 -0.10448,-7.67968 0.50479,-12.61359 2.00713,-16.25393 0.45397,-1.1 0.86528,-2.15 0.91402,-2.33334 0.53158,-1.99915 1.2259,-3.33333 1.73469,-3.33333 0.34196,0 0.62174,-0.31266 0.62174,-0.69481 0,-0.80631 0.96058,-2.0811 3.42567,-4.54619 2.76753,-2.76752 3.69998,-3.40276 7.76325,-5.28871 3.38983,-1.57339 4.62164,-1.76987 11.14441,-1.7776 4.03333,-0.005 8.00833,0.21241 8.83333,0.48265 0.825,0.27023 2.025,0.61748 2.66667,0.77167 2.71095,0.65143 5.93266,2.81898 9.51597,6.40229 3.76978,3.76978 5.84405,8.06823 6.83815,14.17051 l 0.30189,1.85314 -8.06056,-0.18648 -8.06056,-0.18647 -0.49745,-2.91983 c -0.96824,-5.68325 -4.22634,-8.08199 -10.97152,-8.07768 -5.07641,0.003 -7.86101,1.65468 -9.66442,5.73158 -1.93242,4.36857 -2.09264,5.57965 -2.10779,15.9326 -0.0161,10.97155 1.02961,15.62321 4.19341,18.65433 1.7259,1.65351 2.69168,1.99237 6.34065,2.22471 5.29285,0.33703 6.99678,-0.0634 9.60385,-2.25714 1.57592,-1.32605 2.13269,-2.45289 2.4706,-5.0002 l 0.43622,-3.28837 h 7.98044 7.98043 l -0.33858,2.83333 c -1.05424,8.82233 -6.30047,15.33935 -15.1274,18.79174 -3.6355,1.42192 -11.12527,2.19526 -15.66666,1.61762 z m 299.99999,0.24444 c -2.99549,-0.2689 -9,-2.19202 -9,-2.88251 0,-0.33254 -0.32676,-0.60462 -0.72613,-0.60462 -1.30934,0 -6.50593,-5.91209 -7.83241,-8.91083 -1.43564,-3.2455 -2.01302,-6.09833 -2.44671,-12.08917 -0.28801,-3.97844 0.66106,-10.72745 1.68748,-12 0.29574,-0.36667 0.56682,-0.96667 0.60238,-1.33333 0.1486,-1.53199 0.84687,-3 1.42698,-3 0.34196,0 0.62174,-0.36041 0.62174,-0.8009 0,-1.2369 5.97377,-6.58951 8.56037,-7.67026 4.68911,-1.95924 11.35147,-2.22395 16.43963,-0.6532 2.81367,0.8686 3.66667,1.29571 3.66667,1.83595 0,0.34196 0.35756,0.62174 0.79458,0.62174 1.36413,0 6.01808,5.50849 7.64048,9.04339 2.44695,5.33143 3.28133,14.33863 1.87956,20.28994 -0.21591,0.91667 -0.45847,1.96667 -0.53901,2.33334 -0.0805,0.36666 -0.32153,0.96666 -0.53552,1.33333 -0.214,0.36667 -0.58628,1.49167 -0.82729,2.5 -0.24101,1.00833 -0.73249,1.83333 -1.09217,1.83333 -0.35968,0 -0.65397,0.31307 -0.65397,0.69571 0,1.33305 -4.67969,5.74113 -7.692,7.24555 -3.10704,1.55173 -8.4136,2.53221 -11.97466,2.21254 z m 9.06181,-6.37124 c 6.09419,-3.21653 9.27152,-9.91463 9.27152,-19.54522 0,-12.31094 -6.40339,-20.23734 -16.34887,-20.23734 -10.72334,0 -16.80198,8.48447 -16.18545,22.59138 0.29991,6.86205 1.31281,9.72901 4.97488,14.08114 3.97593,4.72513 12.48592,6.17234 18.28792,3.11004 z m 94.43886,6.51411 c -0.092,-0.082 -1.51734,-0.30706 -3.16734,-0.50006 -5.84626,-0.68386 -7.52395,-1.39119 -11.17135,-4.70997 -2.73527,-2.48883 -3.25604,-3.38491 -4.06836,-7.00028 l -0.61856,-2.75302 h 2.8458 c 2.57777,0 2.88067,0.17433 3.21601,1.85103 1.00191,5.00954 6.1455,8.11141 13.48853,8.13433 6.09237,0.019 10.08367,-1.84359 11.89394,-5.55048 3.03695,-6.21875 -2.17805,-11.54693 -13.25268,-13.54032 -1.1,-0.198 -2.525,-0.64083 -3.16667,-0.98407 -0.64166,-0.34324 -1.16666,-0.42678 -1.16666,-0.18565 0,0.24113 -0.45,0.065 -1,-0.39151 -0.55,-0.45646 -1,-0.62623 -1,-0.37727 0,0.6963 -4.02436,-1.72614 -6.4795,-3.90031 -2.53875,-2.24821 -3.78373,-6.02123 -3.24879,-9.84575 0.42109,-3.01048 0.64389,-3.44301 3.25428,-6.31749 2.78532,-3.0671 7.75434,-4.99158 13.05895,-5.05766 5.31132,-0.0662 7.26435,0.31719 11.11678,2.18212 4.45425,2.15626 6.8704,5.38319 7.84913,10.48303 l 0.41581,2.16666 h -2.98333 c -2.64808,0 -2.98383,-0.16856 -2.98773,-1.5 -0.005,-1.87585 -1.78002,-4.61412 -4.24845,-6.5558 -1.43627,-1.12976 -3.05239,-1.56154 -6.72752,-1.7974 -5.73268,-0.3679 -8.76259,0.48276 -11.35411,3.18773 -1.52619,1.593 -1.88774,2.57148 -1.88774,5.10886 0,2.76949 0.27961,3.38018 2.37828,5.19434 2.13965,1.84958 7.96794,3.93467 15.17727,5.42974 0.91667,0.19009 1.95167,0.62768 2.3,0.97241 0.34833,0.34474 1.03548,0.62679 1.527,0.62679 0.99965,0 4.70034,2.4631 6.00981,4 2.36489,2.77563 3.59209,9.18768 2.23288,11.66667 -0.20104,0.36666 -0.41764,1.00911 -0.48133,1.42765 -0.22462,1.476 -3.64035,4.69531 -6.49387,6.12042 -2.37035,1.18381 -10.64965,2.95963 -11.26048,2.41526 z m -357.15896,-1.2618 c -0.91207,-0.50484 -1.87225,-0.78566 -2.13374,-0.62405 -0.26149,0.16161 -1.96462,-1.2111 -3.78474,-3.05047 -2.6067,-2.63427 -3.46325,-4.06217 -4.03443,-6.7255 -0.74002,-3.45059 -0.3532,-8.37214 0.70965,-9.02902 0.32449,-0.20054 0.41737,-0.64389 0.20642,-0.98523 -0.21095,-0.34133 -0.0659,-0.6206 0.32246,-0.6206 0.38831,0 0.70601,-0.28636 0.70601,-0.63636 0,-1.27827 3.67388,-4.25997 7.28702,-5.91413 3.02659,-1.38561 5.02011,-1.75074 10.87608,-1.99202 l 7.17023,-0.29542 v -2.82446 c 0,-4.14783 -1.93897,-6.33761 -5.61173,-6.33761 -3.01296,0 -4.51355,1.07432 -5.35434,3.83334 -0.43912,1.44095 -0.75588,1.5 -8.04718,1.5 h -7.59007 l 0.25251,-1.99524 c 0.76331,-6.03128 5.65996,-10.99146 12.93996,-13.10781 3.55084,-1.03226 11.62541,-1.37309 14.57752,-0.61532 0.825,0.21177 2.06601,0.51126 2.75779,0.66554 3.57544,0.79738 8.90561,5.52621 10.46368,9.28319 0.93709,2.25961 1.2229,5.8388 1.55205,19.4363 0.27533,11.37388 0.66646,17.1291 1.23163,18.12284 0.4555,0.8009 0.82818,1.6259 0.82818,1.83334 0,0.20744 -3.6075,0.37716 -8.01666,0.37716 h -8.01667 l -0.4,-2 c -0.45405,-2.27027 -1.00415,-2.48247 -2.31837,-0.89435 -2.62886,3.17674 -12.67969,4.75101 -16.57326,2.59588 z m 15.30933,-11.586 c 1.45852,-1.08598 1.70852,-1.84209 1.87943,-5.68407 l 0.19712,-4.43146 h -3.05187 c -3.74838,0 -7.31569,1.41494 -8.32581,3.30236 -0.41657,0.77839 -0.66572,2.67177 -0.55366,4.20752 0.1597,2.18853 0.56412,2.98081 1.87042,3.66425 2.07638,1.08635 5.75945,0.59803 7.98437,-1.0586 z m 86.21501,11.55096 c -5.76349,-2.45224 -9.56366,-8.21793 -9.18425,-13.93454 0.38055,-5.73387 1.06866,-7.33302 4.53591,-10.54128 3.69519,-3.41917 7.48934,-4.60748 16.02525,-5.01902 l 7.24295,-0.34921 -0.3237,-3.36884 c -0.3838,-3.99425 -2.12267,-5.78694 -5.61322,-5.78694 -3.17715,0 -4.6965,0.96963 -5.21444,3.32779 l -0.44049,2.00555 h -7.67296 -7.67296 l 0.38848,-2.77741 c 0.63822,-4.56287 3.63582,-8.22575 8.89244,-10.866 4.03221,-2.02526 11.86034,-3.17132 16.17094,-2.36746 1.65,0.3077 3,0.55426 3,0.54792 0,-0.006 1.2,0.31282 2.66667,0.70925 3.75085,1.01384 7.56648,4.40802 9.41282,8.37312 1.48233,3.18337 1.57532,4.13893 1.59407,16.38058 0.0181,11.84529 0.51924,18.44339 1.70877,22.5 0.43815,1.4942 0.41014,1.5 -7.23936,1.5 h -7.6792 l -0.7002,-2.0086 -0.7002,-2.00859 -3.08411,2.17526 c -2.81912,1.98836 -3.55216,2.18562 -8.53168,2.29581 -3.36935,0.0746 -6.26167,-0.22582 -7.58153,-0.78739 z m 16.40957,-11.51954 c 1.51292,-1.12657 1.74878,-1.83723 1.92333,-5.79521 l 0.19894,-4.51118 -4.38317,0.2791 c -3.61774,0.23036 -4.68577,0.5817 -6.11596,2.01188 -2.43885,2.43885 -2.55567,6.78766 -0.23286,8.66856 1.99876,1.61849 5.96288,1.31777 8.60972,-0.65315 z m -76.60895,-12.81362 v -24.66667 h 7.33334 7.33333 v 2.66667 c 0,1.46667 0.16,2.66667 0.35555,2.66667 0.19556,0 1.3553,-0.99974 2.5772,-2.22165 3.33442,-3.33441 9.72342,-4.75333 16.06725,-3.56834 1.46666,0.27396 2.76666,0.78879 2.88889,1.14405 0.12222,0.35527 0.49379,0.64594 0.82571,0.64594 1.11154,0 3.38182,2.31042 4.61846,4.70012 2.06669,3.9937 2.56246,8.97245 2.63544,26.46654 l 0.0702,16.83334 h -8.03391 -8.03391 l 0.0518,-17.30762 c 0.0333,-11.14572 -0.20288,-17.7834 -0.66347,-18.64402 -1.54994,-2.8961 -8.38394,-3.07428 -11.45107,-0.29856 -1.15101,1.04164 -1.24148,2.40337 -1.24148,18.68686 v 17.56334 h -7.66666 -7.66667 z m 102.66666,0 v -24.66667 h 7.33334 7.33333 v 2.29399 c 0,2.94288 0.76041,3.38085 2.30314,1.32653 2.43904,-3.24786 7.91669,-5.42605 11.42865,-4.5446 1.56983,0.394 1.60154,0.54755 1.60154,7.75364 v 7.35167 l -3.09462,-0.42416 c -3.97535,-0.54488 -7.96087,0.54112 -9.97953,2.71928 -1.58439,1.70959 -1.59251,1.79772 -1.59251,17.28767 v 15.56932 h -7.66667 -7.66667 z m -269.687715,18.6434 c -1.381893,-1.52698 -0.967012,-2.82471 1.406976,-4.40098 1.245536,-0.82701 1.299616,-0.72802 1.06162,1.94309 -0.320908,3.60167 -0.906149,4.18437 -2.468596,2.45789 z m 4.354393,-52.91832 c 0,-1.37682 2.031213,-6.39984 2.572387,-6.3613 0.235187,0.0168 1.06071,1.37155 1.834495,3.01067 l 1.406882,2.98022 -1.740215,0.38463 c -0.957119,0.21154 -2.265216,0.52696 -2.906882,0.70092 -0.744687,0.20189 -1.166667,-0.0568 -1.166667,-0.71514 z m 22.44576,-6.26752 c -0.844066,-0.93268 -0.913411,-1.38991 -0.303325,-2 1.184586,-1.1845802 2.833833,-0.9571002 4.22773,0.58314 1.064199,1.17592 1.103126,1.46281 0.269992,1.98979 -1.508572,0.95421 -2.996257,0.751 -4.194397,-0.57293 z"
       id="path1" />
  </g>
</svg>
